<svg width="19" height="20" viewBox="0 0 19 20" fill="none" xmlns="http://www.w3.org/2000/svg">
<g clip-path="url(#clip0_230_106)">
<path d="M3.39746 19.8603H14.8916C16.6397 19.8603 17.6651 18.8447 17.6651 16.833V6.72558C17.6651 4.71386 16.6299 3.69824 14.5987 3.69824H3.39746C1.35644 3.69824 0.331055 4.7041 0.331055 6.72558V16.833C0.331055 18.8545 1.35644 19.8603 3.39746 19.8603ZM3.41699 18.2881C2.44043 18.2881 1.90332 17.7705 1.90332 16.7549V6.80371C1.90332 5.78808 2.44043 5.2705 3.41699 5.2705H14.5694C15.5362 5.2705 16.0928 5.78808 16.0928 6.80371V16.7549C16.0928 17.7705 15.5362 18.2881 14.8623 18.2881H3.41699ZM5.1455 4.0791L6.71777 4.08886C6.71777 2.69238 7.63575 1.69629 8.99317 1.69629C10.3506 1.69629 11.2784 2.69238 11.2784 4.08886L12.8506 4.0791C12.8506 1.92089 11.1807 0.211914 8.99317 0.211914C6.80567 0.211914 5.1455 1.92089 5.1455 4.0791Z" fill="black"/>
</g>
<defs>
<clipPath id="clip0_230_106">
<rect width="17.6953" height="19.6582" fill="white" transform="translate(0.331055 0.211914)"/>
</clipPath>
</defs>
</svg>
