<svg width="16" height="14" viewBox="0 0 16 14" fill="none" xmlns="http://www.w3.org/2000/svg">
<g id="Shopping Cart 2" clip-path="url(#clip0_95_12)">
<path id="icon" fill-rule="evenodd" clip-rule="evenodd" d="M0.885869 1.5H2.46156L2.8882 2.94042C2.89156 2.95178 2.89521 2.96301 2.89911 2.97411L3.99235 7.81856C3.99508 7.84463 3.99939 7.87084 4.00532 7.89709L4.47988 10C4.54491 10.2823 4.71801 10.5361 4.96989 10.7183C5.22173 10.9005 5.53684 11 5.86193 11H12.7336C13.2009 11 13.5798 10.6642 13.5798 10.25C13.5798 9.83579 13.2009 9.5 12.7336 9.5H6.09307L5.81098 8.25H13.6942L13.706 8.25014C13.7457 8.25077 13.8589 8.25253 13.9626 8.2375C14.3407 8.18275 14.6644 7.95491 14.8151 7.64943C14.8766 7.52487 14.9069 7.3678 14.9168 7.3165L14.9197 7.30155L15.8128 3.44041L15.8153 3.43002C15.845 3.28615 15.8385 3.13824 15.7968 2.99675C15.6679 2.5607 15.218 2.25166 14.7094 2.25H4.43356L4.05596 0.975139C3.98669 0.702779 3.81643 0.458536 3.57197 0.281674C3.32013 0.0994786 3.00502 -2.348e-05 2.67993 4.15605e-09H0.885869C0.418493 4.15605e-09 0.0396118 0.335786 0.0396118 0.75C0.0396118 1.16421 0.418493 1.5 0.885869 1.5ZM13.1616 12.8004C13.1616 12.166 12.5812 11.6517 11.8655 11.6517C11.1497 11.6517 10.5694 12.166 10.5694 12.8004C10.5694 13.4348 11.1497 13.949 11.8655 13.949C12.5812 13.949 13.1616 13.4348 13.1616 12.8004ZM6.22375 11.6517C6.93954 11.6517 7.5198 12.166 7.5198 12.8004C7.5198 13.4347 6.93954 13.949 6.22375 13.949C5.50795 13.949 4.92769 13.4347 4.92769 12.8004C4.92769 12.166 5.50795 11.6517 6.22375 11.6517Z" fill="black"/>
</g>
<defs>
<clipPath id="clip0_95_12">
<rect width="15.7968" height="14" fill="white" transform="translate(0.0396118)"/>
</clipPath>
</defs>
</svg>
