<svg width="24" height="21" viewBox="0 0 24 21" fill="none" xmlns="http://www.w3.org/2000/svg">
<g clip-path="url(#clip0_230_115)">
<path d="M7.96582 16.042H19.3623C19.7432 16.042 20.0752 15.7295 20.0752 15.3096C20.0752 14.8896 19.7432 14.5771 19.3623 14.5771H8.13184C7.5752 14.5771 7.2334 14.1865 7.14551 13.5908L5.54395 2.72169C5.44629 1.96973 5.17285 1.58887 4.17676 1.58887H0.749023C0.358398 1.58887 0.0263672 1.93067 0.0263672 2.3213C0.0263672 2.72169 0.358398 3.06348 0.749023 3.06348H4.04981L5.61231 13.7861C5.81739 15.1728 6.54981 16.042 7.96582 16.042ZM6.16895 12.5654H19.3819C20.8076 12.5654 21.5401 11.6865 21.7452 10.29L22.5264 5.12403C22.5459 4.99708 22.5655 4.84083 22.5655 4.75294C22.5655 4.28419 22.2139 3.96192 21.6768 3.96192H5.31934L5.3291 5.43653H20.9053L20.2119 10.1143C20.1338 10.7197 19.8116 11.1006 19.2354 11.1006H6.14942L6.16895 12.5654ZM8.73731 20.7881C9.61621 20.7881 10.3194 20.0947 10.3194 19.206C10.3194 18.3271 9.61621 17.624 8.73731 17.624C7.84864 17.624 7.14551 18.3271 7.14551 19.206C7.14551 20.0947 7.84864 20.7881 8.73731 20.7881ZM17.8682 20.7881C18.7569 20.7881 19.46 20.0947 19.46 19.206C19.46 18.3271 18.7569 17.624 17.8682 17.624C16.9893 17.624 16.2764 18.3271 16.2764 19.206C16.2764 20.0947 16.9893 20.7881 17.8682 20.7881Z" fill="black"/>
</g>
<defs>
<clipPath id="clip0_230_115">
<rect width="23.3984" height="20.5762" fill="white" transform="translate(0.0263672 0.211914)"/>
</clipPath>
</defs>
</svg>
