<svg width="21" height="19" viewBox="0 0 21 19" fill="none" xmlns="http://www.w3.org/2000/svg">
<g clip-path="url(#clip0_230_88)">
<path d="M0.575195 6.70605C0.575195 10.8662 4.06152 14.958 9.56933 18.4736C9.77441 18.6006 10.0674 18.7373 10.2725 18.7373C10.4775 18.7373 10.7705 18.6006 10.9854 18.4736C16.4834 14.958 19.9697 10.8662 19.9697 6.70605C19.9697 3.24902 17.5967 0.807617 14.4326 0.807617C12.626 0.807617 11.1611 1.66699 10.2725 2.98535C9.40332 1.67675 7.91895 0.807617 6.11231 0.807617C2.94825 0.807617 0.575195 3.24902 0.575195 6.70605ZM2.14747 6.70605C2.14747 4.10839 3.82715 2.37988 6.09278 2.37988C7.92872 2.37988 8.9834 3.52246 9.6084 4.49902C9.87208 4.88964 10.0381 4.99707 10.2725 4.99707C10.5068 4.99707 10.6533 4.87988 10.9365 4.49902C11.6104 3.54199 12.626 2.37988 14.4522 2.37988C16.7178 2.37988 18.3975 4.10839 18.3975 6.70605C18.3975 10.3389 14.5596 14.2549 10.4775 16.9697C10.3799 17.0381 10.3115 17.0869 10.2725 17.0869C10.2334 17.0869 10.165 17.0381 10.0771 16.9697C5.98536 14.2549 2.14747 10.3389 2.14747 6.70605Z" fill="black"/>
</g>
<defs>
<clipPath id="clip0_230_88">
<rect width="19.7559" height="18.5254" fill="white" transform="translate(0.575195 0.211914)"/>
</clipPath>
</defs>
</svg>
