<svg width="425" height="37" viewBox="0 0 425 37" fill="none" xmlns="http://www.w3.org/2000/svg">
<path d="M20.95 3.1C17.9167 1.93333 15.05 1.35 12.35 1.35C9.68333 1.35 7.6 1.91667 6.1 3.05C4.6 4.18333 3.85 5.75 3.85 7.75C3.85 10.1833 5.11667 12.0667 7.65 13.4C8.78333 13.9667 10.0167 14.5 11.35 15C12.7167 15.4667 14.0833 16 15.45 16.6C16.8167 17.2 18.0667 17.8833 19.2 18.65C20.3333 19.4167 21.25 20.4833 21.95 21.85C22.65 23.1833 23 24.9 23 27C23 29.0667 22.4167 30.8333 21.25 32.3C20.0833 33.7667 18.6667 34.7667 17 35.3C15.3667 35.8 13.45 36.05 11.25 36.05C7.15 36.05 3.65 35.0333 0.75 33L1 32.6C2.1 33.4667 3.51667 34.1833 5.25 34.75C7.01667 35.2833 8.81667 35.55 10.65 35.55C13.35 35.55 15.65 34.9333 17.55 33.7C19.4833 32.4333 20.45 30.5833 20.45 28.15C20.45 25.4833 19.1833 23.4 16.65 21.9C15.5167 21.2333 14.2667 20.6167 12.9 20.05C11.5667 19.4833 10.2167 18.9 8.85 18.3C7.48333 17.6667 6.23333 16.9667 5.1 16.2C2.56667 14.5333 1.3 12.1667 1.3 9.1C1.3 6.66667 2.11667 4.7 3.75 3.2C5.38333 1.66667 7.83333 0.899999 11.1 0.899999C14.4 0.899999 17.75 1.46667 21.15 2.6L20.95 3.1ZM47.1324 0.999998V1.5H31.3824V16.5H45.9824V17H31.3824V35.5H48.2324V36H27.2324V0.999998H47.1324ZM67.4383 36.2C61.2049 36.2 56.5883 34.4333 53.5883 30.9C52.5216 29.6333 51.6549 27.95 50.9883 25.85C50.3216 23.75 49.9883 21.2 49.9883 18.2C49.9883 15.2 50.4716 12.5167 51.4383 10.15C52.4383 7.75 53.7883 5.9 55.4883 4.6C58.7883 2.16667 62.7716 0.949998 67.4383 0.949998C68.9383 0.949998 70.4049 1.06667 71.8383 1.3C73.2716 1.5 74.3383 1.71666 75.0383 1.95L76.0883 2.3L75.9383 2.8C73.3383 1.9 70.5049 1.45 67.4383 1.45C63.9049 1.45 60.9549 2.6 58.5883 4.9C56.7883 6.6 55.5216 9.1 54.7883 12.4C54.3549 14.2667 54.1383 16.55 54.1383 19.25C54.1383 21.95 54.5216 24.45 55.2883 26.75C56.0549 29.0167 56.9216 30.7 57.8883 31.8C58.8883 32.9 60.0883 33.7833 61.4883 34.45C62.8883 35.0833 64.0049 35.45 64.8383 35.55C65.6716 35.65 66.6549 35.7 67.7883 35.7C68.9549 35.7 70.5049 35.5667 72.4383 35.3V25H66.3883V24.5H78.7383V25H76.5883V34.85C74.0549 35.75 71.0049 36.2 67.4383 36.2ZM106.509 0.999998H107.159V21C107.159 26.2333 106.126 30.0833 104.059 32.55C101.992 34.9833 99.2923 36.2 95.959 36.2C93.859 36.2 92.0757 36.0167 90.609 35.65C89.1423 35.25 87.759 34.5333 86.459 33.5C83.7923 31.4333 82.459 27.2667 82.459 21V0.999998H86.609V20.95C86.609 27.0167 87.5257 31.0667 89.359 33.1C90.2923 34.1 91.259 34.7833 92.259 35.15C93.2923 35.5167 94.5257 35.7 95.959 35.7C99.159 35.7 101.709 34.5333 103.609 32.2C105.542 29.8333 106.509 26.0833 106.509 20.95V0.999998ZM112.904 1.5V0.999998H121.804V1.5H119.354V35.5H121.804V36H112.904V35.5H115.204V1.5H112.904ZM128.222 36H127.572V0.999998H129.272L150.072 33.35V0.999998H150.722V36H147.072L128.222 7V36ZM160.461 1.05C161.928 0.983331 163.361 0.949998 164.761 0.949998C166.194 0.949998 167.694 1.1 169.261 1.4C170.861 1.7 172.428 2.26666 173.961 3.1C175.528 3.9 176.844 4.95 177.911 6.25C179.011 7.51666 179.894 9.2 180.561 11.3C181.228 13.4 181.561 15.95 181.561 18.95C181.561 21.95 181.061 24.65 180.061 27.05C179.094 29.4167 177.761 31.2333 176.061 32.5C172.761 34.9667 168.778 36.2 164.111 36.2C162.478 36.2 160.761 36.1333 158.961 36H156.461V1.05H160.461ZM160.611 35.6C161.311 35.6667 162.194 35.7 163.261 35.7C164.328 35.7 165.128 35.6833 165.661 35.65C166.194 35.6167 166.928 35.4833 167.861 35.25C168.794 34.9833 169.661 34.6333 170.461 34.2C171.261 33.7667 172.094 33.1333 172.961 32.3C173.861 31.4333 174.628 30.4167 175.261 29.25C176.694 26.5167 177.411 22.95 177.411 18.55C177.411 15.4167 177.028 12.7167 176.261 10.45C175.494 8.15 174.611 6.45 173.611 5.35C172.644 4.25 171.461 3.38333 170.061 2.75C168.661 2.08333 167.544 1.7 166.711 1.6C165.878 1.5 164.911 1.45 163.811 1.45C162.711 1.45 161.644 1.5 160.611 1.6V35.6ZM185.076 19.35C185.076 13.2833 186.543 8.68333 189.476 5.55C192.443 2.38333 196.243 0.799997 200.876 0.799997C205.51 0.799997 209.193 2.16666 211.926 4.9C214.693 7.63333 216.076 12 216.076 18C216.076 24 214.61 28.5333 211.676 31.6C208.743 34.6667 204.826 36.2 199.926 36.2C195.693 36.2 192.226 34.9833 189.526 32.55C188.126 31.2833 187.026 29.5333 186.226 27.3C185.46 25.0333 185.076 22.3833 185.076 19.35ZM200.726 1.3C197.36 1.3 194.593 2.8 192.426 5.8C190.293 8.8 189.226 13.2 189.226 19C189.226 24.8 190.243 29.0333 192.276 31.7C194.31 34.3667 197.01 35.7 200.376 35.7C203.776 35.7 206.543 34.2 208.676 31.2C210.843 28.1667 211.926 23.7833 211.926 18.05C211.926 12.2833 210.893 8.05 208.826 5.35C206.793 2.65 204.093 1.3 200.726 1.3ZM233.604 36H233.004L247.954 0.999998L248.504 0.749998L261.104 36H256.854L252.954 25H238.354L233.604 36ZM246.404 6.4L238.554 24.5H252.804L246.404 6.4ZM279.449 36H278.799V0.999998H280.499L301.299 33.35V0.999998H301.949V36H298.299L279.449 7V36ZM331.737 0.999998H332.388V21C332.388 26.2333 331.354 30.0833 329.288 32.55C327.221 34.9833 324.521 36.2 321.188 36.2C319.088 36.2 317.304 36.0167 315.838 35.65C314.371 35.25 312.988 34.5333 311.688 33.5C309.021 31.4333 307.688 27.2667 307.688 21V0.999998H311.838V20.95C311.838 27.0167 312.754 31.0667 314.588 33.1C315.521 34.1 316.488 34.7833 317.488 35.15C318.521 35.5167 319.754 35.7 321.188 35.7C324.388 35.7 326.938 34.5333 328.838 32.2C330.771 29.8333 331.737 26.0833 331.737 20.95V0.999998ZM361.683 0.999998C362.316 1.63333 362.633 2.45 362.633 3.45C362.633 4.28333 362.449 5.13333 362.083 6L349.283 36L348.733 36.25L336.133 0.999998H340.383L350.833 30.6L361.483 6C361.849 5.16667 362.033 4.3 362.033 3.4C362.033 2.5 361.783 1.8 361.283 1.3L361.683 0.999998ZM386.525 0.999998V1.5H370.775V16.5H385.375V17H370.775V35.5H387.625V36H366.625V0.999998H386.525ZM392.295 36H391.645L395.995 0.999998H397.645L408.145 33.35L418.595 0.999998H420.245L424.595 36H420.445L416.995 8L407.945 36H404.795L395.645 8.35L392.295 36Z" fill="white"/>
</svg>
