<svg width="184" height="171" viewBox="0 0 184 171" fill="none" xmlns="http://www.w3.org/2000/svg">
<path d="M111.66 42.2812C109.141 42.457 106.621 42.6328 104.102 42.8086C103.633 42.8086 103.164 42.8672 102.754 42.8672L85.1172 43.9219L82.832 86.6953L81.7773 108.199C81.8359 109.84 81.8359 111.48 81.8945 113.18C81.8945 113.883 81.9531 114.645 81.9531 115.406L82.3047 129.762C82.3633 134.566 82.3633 139.43 82.3633 144.234C82.3633 148.395 82.3633 152.73 81.1328 156.715C80.7812 157.594 80.4297 158.355 79.3164 158.355C79.082 158.355 78.9062 158.297 78.6719 158.238C78.3203 158.121 78.0273 157.945 77.7344 157.594C77.5586 157.242 77.4414 156.891 77.4414 156.539C77.4414 156.188 77.4414 155.895 77.5 155.602C78.0273 152.027 78.2617 148.512 78.3789 144.879C78.4375 140.895 78.3789 136.91 78.2617 132.926C78.2031 132.164 78.2031 131.344 78.1445 130.582L77.8516 116.168C77.793 113.766 77.793 111.422 77.793 109.02V101.812L77.6172 58.6875V51.5391C77.6172 49.2539 77.5586 47.0273 77.4414 44.8008C76.0352 44.8008 74.5703 44.8594 73.1641 44.918C73.1055 44.918 73.0469 44.918 73.0469 44.9766C71.9336 45.0352 70.8203 45.0938 69.707 45.2109C69.2383 45.2695 68.7109 45.3281 68.1836 45.3281L19.9023 49.4883C15.7422 49.8398 11.582 50.1914 7.42188 50.6016C5.13672 50.7773 2.91016 51.0117 0.625 51.1875L0.507812 50.4258C6.83594 48.9023 13.2227 47.7305 19.7266 46.9688C24.6484 46.3828 29.6289 45.8555 34.5508 45.3281C36.0742 45.2109 37.5977 45.0352 39.1211 44.8594C48.8477 43.8633 58.5742 42.9844 68.3008 42.457L71.9336 42.2812L76.7383 41.6953C76.7969 41.6953 76.8555 41.6953 76.8555 41.6953C77.1484 41.6367 77.4414 41.6367 77.6758 41.5781L78.0859 20.543C78.0859 16.0898 78.2031 11.6367 78.7891 7.24219L78.8477 6.53906L79.2578 4.54688C79.6094 2.78906 80.4883 0.679688 82.4805 0.445312C83.0078 0.445312 83.4766 0.5625 83.9453 0.796875C84.3555 1.08984 84.707 1.44141 84.9414 1.85156C85.3516 2.67188 85.6445 3.55078 85.7617 4.42969C86.1133 6.53906 86.1719 8.64844 86.1719 10.7578C86.1719 11.2852 86.1719 11.8711 86.1719 12.457L86.0547 20.4258L85.1758 41.4609L115.176 39.7031L115.234 39.7617C115.352 39.7617 115.527 39.7617 115.703 39.7031C116.816 39.6445 117.871 39.5859 118.984 39.5859C119.688 39.5859 120.801 39.5859 121.328 40.1133C121.387 40.2305 121.445 40.2891 121.445 40.4648C121.445 40.582 121.445 40.6406 121.387 40.7578C121.211 41.0508 120.977 41.2852 120.742 41.5195H120.625L111.66 42.2812ZM82.0117 52.5938C81.9531 51.832 81.9531 51.1289 81.9531 50.3672C81.9531 49.6641 82.0117 48.9023 82.0703 48.1992C82.1289 47.6133 82.1875 47.0859 82.1875 46.5586C82.1875 46.3828 82.1875 46.207 82.2461 45.9727L82.3047 44.2148C82.1289 44.2734 82.0117 44.2734 81.8945 44.332C81.8359 44.625 81.7773 44.9766 81.7773 45.3281C81.7773 45.7383 81.7773 46.0898 81.7773 46.5L81.8359 48.9609C81.8359 49.1953 81.8359 49.4883 81.8359 49.7227C81.8945 50.9531 81.8945 52.2422 81.8945 53.4727L81.9531 52.5938H82.0117ZM82.3633 41.2266L83.3594 21.0703C83.418 19.3711 83.4766 17.6719 83.4766 15.9141C83.4766 14.2148 83.418 12.5156 83.3594 10.8164L83.1836 8.23828C83.125 7.35938 83.0664 6.53906 82.8906 5.66016C82.832 5.25 82.7734 4.83984 82.6562 4.42969C82.4805 4.95703 82.4219 5.54297 82.3047 6.07031C82.3047 6.36328 82.2461 6.65625 82.1875 6.94922H82.1289C82.1289 8.12109 82.1289 9.29297 82.1289 10.5234C82.1289 10.7578 82.1289 10.9922 82.1289 11.2852L82.1875 12.3398V12.5742C82.1875 12.6328 82.1875 12.6328 82.1875 12.6914L82.2461 12.8672C82.2461 13.5117 82.2461 14.0977 82.2461 14.7422C82.1875 15.0352 82.1875 15.3281 82.1875 15.6211C82.1289 16.6172 82.1289 17.6133 82.1289 18.6094C82.1289 19.0781 82.1289 19.4883 82.1289 19.957L81.9531 32.9648C81.9531 33.4922 81.9531 33.9609 81.8945 34.4883C81.8945 35.4258 81.8945 36.3633 81.8945 37.3008L81.9531 41.2266H82.3633ZM103.281 122.203C108.203 122.203 112.305 119.332 115.82 116.109C119.746 112.535 122.441 109.664 123.848 107.496C124.316 107.613 124.551 107.73 124.609 107.789C124.609 107.906 124.668 107.965 124.668 108.082C124.668 108.141 124.668 108.258 124.668 108.316C123.848 109.957 121.914 112.594 118.75 116.285C115.527 120.152 111.309 123.316 106.562 125.074C105.566 125.367 104.453 125.602 103.398 125.602C98.418 125.602 96.6016 121.5 96.6016 116.988C96.6602 115.934 96.6602 114.879 96.7773 113.824L96.9531 110.719C96.9531 110.484 96.9531 110.25 97.0117 110.074C97.0703 109.195 97.0703 108.434 97.0117 107.613C96.9531 107.379 96.8945 107.203 96.8359 107.027C96.7773 106.969 96.7188 106.91 96.6602 106.852C96.3086 106.852 96.0742 106.91 95.7812 107.027L95.3711 107.203C95.2539 107.262 95.0781 107.262 94.9023 107.262C94.5508 107.262 94.3164 107.262 94.0234 107.027C94.0234 106.969 93.9648 106.969 93.9062 106.91L93.8477 106.793C93.8477 106.734 93.7891 106.676 93.7891 106.617C93.6133 106.266 93.5547 105.973 93.5547 105.68C93.6133 104.977 93.9062 104.449 94.4336 103.98L94.5508 103.863C95.5469 103.336 96.6602 102.926 97.9492 102.75C99.1797 102.75 100.527 103.16 100.82 104.508C101.113 105.504 101.172 106.441 101.113 107.379C101.113 107.438 101.113 107.496 101.113 107.555C101.055 108.551 100.996 109.547 100.879 110.543L100.527 114.996C100.469 115.465 100.469 115.934 100.469 116.402C100.527 116.93 100.527 117.398 100.586 117.867C100.645 117.984 100.645 118.102 100.645 118.277C100.703 118.629 100.703 118.98 100.762 119.332C100.938 120.914 101.523 122.027 103.281 122.203ZM100.82 94.0195C101.113 94.3125 101.289 94.6641 101.289 95.0742H101.348C101.406 95.4258 101.289 95.7773 101.055 96.0703C100.176 96.9492 99.2383 97.3008 97.9492 97.4766C97.1289 97.4766 96.3086 97.4766 95.4883 97.3008C94.6094 97.0078 93.8477 96.5977 93.6133 95.6602C93.6133 95.1914 93.7305 94.8398 94.0234 94.4883C94.3164 94.1953 94.6094 93.9609 95.0195 93.7852C95.7227 93.4336 96.4844 93.2578 97.3047 93.2578C98.125 93.2578 98.8867 93.375 99.707 93.5508C99.7656 93.5508 99.7656 93.5508 99.8242 93.5508C100.176 93.668 100.527 93.7852 100.82 94.0195ZM156.719 107.32C156.777 107.32 156.895 107.379 157.012 107.438C157.188 107.438 157.305 107.613 157.363 107.73C157.363 107.789 157.363 107.848 157.363 107.906C157.363 107.965 157.363 108.023 157.363 108.082C157.305 108.141 157.246 108.199 157.246 108.258C157.07 108.434 156.953 108.492 156.836 108.609C156.484 108.785 156.191 108.961 155.957 109.137L154.258 110.016C153.848 110.309 152.91 110.895 151.504 111.949C148.516 114 145.059 116.695 142.715 119.449C142.715 119.449 142.773 119.625 142.949 119.918C143.184 120.27 143.359 120.797 143.594 121.441C144.414 123.492 144.297 128.531 143.242 136.617C142.246 144.703 138.906 153.551 133.164 163.16C133.105 163.219 133.047 163.277 132.988 163.336C131.23 166.324 127.949 170.426 124.199 170.426C123.73 170.426 123.262 170.309 122.793 170.191C120.215 169.254 118.75 166.324 118.34 163.746C118.047 161.988 117.988 160.23 118.105 158.473C118.398 155.016 119.219 151.617 120.625 148.453C124.141 139.898 129.121 131.344 135.039 124.137L137.5 121.148C137.734 120.855 138.027 120.504 138.32 120.211C138.613 119.918 138.73 119.566 138.672 119.273C138.555 118.98 138.379 118.629 138.086 118.336C137.676 117.867 137.148 117.633 136.562 117.633C134.629 117.633 131.348 120.738 130.117 122.145L128.418 124.02C128.242 124.254 128.066 124.43 127.891 124.664C127.773 124.781 127.715 124.898 127.598 125.016C127.363 125.367 127.012 125.719 126.602 125.953C126.426 126.129 126.133 126.188 125.898 126.246C125.137 126.246 124.434 125.719 124.082 125.074C123.906 124.547 123.906 124.02 124.082 123.609C124.199 123.141 124.434 122.789 124.609 122.379C124.844 122.027 125.02 121.617 125.195 121.266L126.836 117.75C128.418 114.703 129.883 111.598 130.469 108.258C130.527 107.848 130.527 107.438 130.469 107.086C130.352 106.734 130.176 106.441 129.824 106.324C129.707 106.324 129.531 106.266 129.355 106.266C129.121 106.266 128.887 106.324 128.652 106.383C128.242 106.441 127.891 106.559 127.539 106.793C126.953 107.145 126.426 107.555 125.898 107.965C125.781 108.082 125.664 108.199 125.488 108.316C125.195 108.609 124.844 108.844 124.434 109.078C124.258 109.195 124.023 109.254 123.789 109.312C123.672 109.371 123.555 109.371 123.438 109.312C123.262 109.312 123.145 109.195 123.086 109.078L122.969 108.902C122.852 108.727 122.852 108.492 122.91 108.316C122.969 108.082 123.027 107.848 123.145 107.613C124.316 105.562 127.598 102.926 129.941 102.926C130.41 102.926 130.879 103.043 131.348 103.16C132.285 103.57 132.93 104.273 133.281 105.211C133.633 106.148 133.691 107.086 133.574 108.082C133.457 109.02 133.281 109.898 132.988 110.777C132.695 111.656 132.461 112.535 132.168 113.414L131.289 116.051C131.113 116.52 130.996 116.93 130.879 117.398L131.055 117.223C131.699 116.578 132.402 115.992 133.164 115.406C133.574 115.172 133.984 114.938 134.453 114.703C135.273 114.352 136.387 114.234 137.266 114.234C138.32 114.352 139.082 114.879 139.785 115.582C140.078 115.934 140.43 116.285 140.664 116.695L140.781 116.812C140.84 116.871 140.84 116.93 140.898 116.93C140.957 116.988 140.957 117.047 141.074 117.047C141.191 117.105 141.309 117.047 141.426 116.988C141.543 116.871 141.719 116.695 142.07 116.461C142.422 116.168 142.773 115.875 143.184 115.582C143.594 115.23 143.945 114.996 144.238 114.762C144.531 114.527 144.707 114.41 144.707 114.41C147.461 112.184 150.391 110.367 153.438 108.551C153.965 108.258 154.492 108.023 155.02 107.73C155.312 107.613 155.605 107.496 155.898 107.438C156.074 107.379 156.191 107.32 156.367 107.32C156.484 107.32 156.602 107.32 156.719 107.32ZM127.891 165.328C134.688 158.004 138.906 145.172 140.43 135.445C141.309 130.23 141.484 126.363 141.016 123.902C141.016 123.844 140.957 123.668 140.898 123.434C140.84 123.141 140.723 122.906 140.664 122.672C140.547 122.379 140.488 122.203 140.43 122.145C140.371 122.027 140.312 121.969 140.312 121.969C140.254 121.969 140.195 122.027 140.078 122.086C139.902 122.32 139.668 122.555 139.434 122.848C139.199 123.082 138.848 123.434 138.672 123.727C138.438 123.961 138.262 124.195 138.027 124.488L137.031 125.719C131.23 133.043 126.133 141.305 123.027 150.094C122.969 150.27 122.91 150.387 122.852 150.562L122.324 152.086C122.207 152.262 122.148 152.496 122.09 152.789L121.914 153.551C121.387 155.66 121.152 157.711 121.152 159.82C121.27 161.871 121.738 165.504 123.848 166.383C124.082 166.5 124.375 166.559 124.727 166.617C125.195 166.617 125.664 166.559 126.133 166.5C126.66 166.324 127.246 165.914 127.891 165.328ZM162.578 122.203C167.5 122.203 171.602 119.332 175.117 116.109C179.043 112.535 181.738 109.664 183.145 107.496C183.613 107.613 183.848 107.73 183.906 107.789C183.906 107.906 183.965 107.965 183.965 108.082C183.965 108.141 183.965 108.258 183.965 108.316C183.145 109.957 181.211 112.594 178.047 116.285C174.824 120.152 170.605 123.316 165.859 125.074C164.863 125.367 163.75 125.602 162.695 125.602C157.715 125.602 155.898 121.5 155.898 116.988C155.957 115.934 155.957 114.879 156.074 113.824L156.25 110.719C156.25 110.484 156.25 110.25 156.309 110.074C156.367 109.195 156.367 108.434 156.309 107.613C156.25 107.379 156.191 107.203 156.133 107.027C156.074 106.969 156.016 106.91 155.957 106.852C155.605 106.852 155.371 106.91 155.078 107.027L154.668 107.203C154.551 107.262 154.375 107.262 154.199 107.262C153.848 107.262 153.613 107.262 153.32 107.027C153.32 106.969 153.262 106.969 153.203 106.91L153.145 106.793C153.145 106.734 153.086 106.676 153.086 106.617C152.91 106.266 152.852 105.973 152.852 105.68C152.91 104.977 153.203 104.449 153.73 103.98L153.848 103.863C154.844 103.336 155.957 102.926 157.246 102.75C158.477 102.75 159.824 103.16 160.117 104.508C160.41 105.504 160.469 106.441 160.41 107.379C160.41 107.438 160.41 107.496 160.41 107.555C160.352 108.551 160.293 109.547 160.176 110.543L159.824 114.996C159.766 115.465 159.766 115.934 159.766 116.402C159.824 116.93 159.824 117.398 159.883 117.867C159.941 117.984 159.941 118.102 159.941 118.277C160 118.629 160 118.98 160.059 119.332C160.234 120.914 160.82 122.027 162.578 122.203ZM160.117 94.0195C160.41 94.3125 160.586 94.6641 160.586 95.0742H160.645C160.703 95.4258 160.586 95.7773 160.352 96.0703C159.473 96.9492 158.535 97.3008 157.246 97.4766C156.426 97.4766 155.605 97.4766 154.785 97.3008C153.906 97.0078 153.145 96.5977 152.91 95.6602C152.91 95.1914 153.027 94.8398 153.32 94.4883C153.613 94.1953 153.906 93.9609 154.316 93.7852C155.02 93.4336 155.781 93.2578 156.602 93.2578C157.422 93.2578 158.184 93.375 159.004 93.5508C159.062 93.5508 159.062 93.5508 159.121 93.5508C159.473 93.668 159.824 93.7852 160.117 94.0195Z" fill="black"/>
</svg>
