<svg width="16" height="14" viewBox="0 0 16 14" fill="none" xmlns="http://www.w3.org/2000/svg">
<g id="User Circle Single" clip-path="url(#clip0_95_7)">
<path id="icon" fill-rule="evenodd" clip-rule="evenodd" d="M15.9397 7C15.9397 8.87687 15.1062 10.5812 13.7494 11.8382C12.3165 13.1657 10.2999 13.9942 8.06485 14C8.057 14 8.04914 14 8.04128 14C8.03341 14 8.02556 14 8.01771 14C5.78268 13.9942 3.76606 13.1657 2.33314 11.8382C0.976344 10.5812 0.142883 8.87687 0.142883 7C0.142883 3.13401 3.67912 0 8.04128 0C12.4035 0 15.9397 3.13401 15.9397 7ZM12.8286 10.5C11.6905 9.27847 9.96842 8.49997 8.04128 8.49997C6.11414 8.49997 4.39215 9.27847 3.25389 10.5C4.39215 11.7215 6.11414 12.5 8.04128 12.5C9.96842 12.5 11.6905 11.7215 12.8286 10.5ZM8.04141 7.49997C9.59933 7.49997 10.8623 6.38068 10.8623 4.99997C10.8623 3.61926 9.59933 2.49997 8.04141 2.49997C6.4835 2.49997 5.22056 3.61926 5.22056 4.99997C5.22056 6.38068 6.4835 7.49997 8.04141 7.49997Z" fill="black"/>
</g>
<defs>
<clipPath id="clip0_95_7">
<rect width="15.7968" height="14" fill="white" transform="translate(0.142883)"/>
</clipPath>
</defs>
</svg>
